{
    "asset" : {
        "generator" : "Khronos glTF Blender I/O v3.4.50",
        "version" : "2.0"
    },
    "extensionsUsed" : [
        "KHR_materials_specular",
        "KHR_materials_ior"
    ],
    "scene" : 0,
    "scenes" : [
        {
            "name" : "Scene",
            "nodes" : [
                0,
                1,
                2,
                3,
                4
            ]
        }
    ],
    "nodes" : [
        {
            "mesh" : 0,
            "name" : "Plate_Corner-col",
            "rotation" : [
                -0.7072479724884033,
                0,
                0,
                0.7069656252861023
            ],
            "scale" : [
                2,
                1.9999998807907104,
                2
            ],
            "translation" : [
                -29.99489402770996,
                0.49872922897338867,
                -11.995491981506348
            ]
        },
        {
            "mesh" : 1,
            "name" : "Plate_Full-col",
            "rotation" : [
                -0.7072479724884033,
                0,
                0,
                0.7069656252861023
            ],
            "scale" : [
                2,
                1.9999998807907104,
                2
            ],
            "translation" : [
                0,
                0.49999988079071045,
                -12.000598907470703
            ]
        },
        {
            "mesh" : 2,
            "name" : "Plate_One-col",
            "rotation" : [
                -0.7072479724884033,
                0,
                0,
                0.7069656252861023
            ],
            "scale" : [
                2,
                1.9999998807907104,
                2
            ],
            "translation" : [
                -10,
                0.4845043420791626,
                -11.944869995117188
            ]
        },
        {
            "mesh" : 3,
            "name" : "Plate_Two-col",
            "rotation" : [
                -0.7072479724884033,
                0,
                0,
                0.7069656252861023
            ],
            "scale" : [
                2,
                1.9999998807907104,
                2
            ],
            "translation" : [
                -19.947956085205078,
                0.4697967767715454,
                -11.948542594909668
            ]
        },
        {
            "mesh" : 4,
            "name" : "Plate_Full_Var1-col",
            "rotation" : [
                0.00552887050434947,
                0.03899054974317551,
                0.7316181063652039,
                0.6805763244628906
            ],
            "scale" : [
                0.19122245907783508,
                0.3468373715877533,
                0.4444732666015625
            ],
            "translation" : [
                9.9551362991333,
                0.7163897752761841,
                -12.015569686889648
            ]
        }
    ],
    "materials" : [
        {
            "doubleSided" : true,
            "extensions" : {
                "KHR_materials_specular" : {
                    "specularColorFactor" : [
                        0,
                        0,
                        0
                    ]
                },
                "KHR_materials_ior" : {
                    "ior" : 1.4500000476837158
                }
            },
            "name" : "ground_gras_green",
            "pbrMetallicRoughness" : {
                "baseColorFactor" : [
                    0.10182588547468185,
                    0.1141558364033699,
                    0.02279416099190712,
                    1
                ],
                "metallicFactor" : 0,
                "roughnessFactor" : 0.5
            }
        },
        {
            "doubleSided" : true,
            "name" : "stone",
            "pbrMetallicRoughness" : {
                "baseColorFactor" : [
                    0.08865293115377426,
                    0.08865293115377426,
                    0.08865293115377426,
                    1
                ],
                "metallicFactor" : 0,
                "roughnessFactor" : 0.5
            }
        }
    ],
    "meshes" : [
        {
            "name" : "W\u00fcrfel.009",
            "primitives" : [
                {
                    "attributes" : {
                        "POSITION" : 0,
                        "TEXCOORD_0" : 1,
                        "NORMAL" : 2
                    },
                    "indices" : 3,
                    "material" : 0
                }
            ]
        },
        {
            "name" : "W\u00fcrfel.001",
            "primitives" : [
                {
                    "attributes" : {
                        "POSITION" : 4,
                        "TEXCOORD_0" : 5,
                        "NORMAL" : 6
                    },
                    "indices" : 7,
                    "material" : 0
                }
            ]
        },
        {
            "name" : "W\u00fcrfel.004",
            "primitives" : [
                {
                    "attributes" : {
                        "POSITION" : 8,
                        "TEXCOORD_0" : 9,
                        "NORMAL" : 10
                    },
                    "indices" : 11,
                    "material" : 0
                }
            ]
        },
        {
            "name" : "W\u00fcrfel.008",
            "primitives" : [
                {
                    "attributes" : {
                        "POSITION" : 12,
                        "TEXCOORD_0" : 13,
                        "NORMAL" : 14
                    },
                    "indices" : 15,
                    "material" : 0
                }
            ]
        },
        {
            "name" : "W\u00fcrfel.010",
            "primitives" : [
                {
                    "attributes" : {
                        "POSITION" : 16,
                        "TEXCOORD_0" : 17,
                        "NORMAL" : 18
                    },
                    "indices" : 19,
                    "material" : 1
                },
                {
                    "attributes" : {
                        "POSITION" : 20,
                        "TEXCOORD_0" : 21,
                        "NORMAL" : 22
                    },
                    "indices" : 23,
                    "material" : 0
                }
            ]
        }
    ],
    "accessors" : [
        {
            "bufferView" : 0,
            "componentType" : 5126,
            "count" : 109,
            "max" : [
                0.9974466562271118,
                1.0025534629821777,
                0.2506364583969116
            ],
            "min" : [
                -1.0025532245635986,
                -0.997446596622467,
                -0.249363511800766
            ],
            "type" : "VEC3"
        },
        {
            "bufferView" : 1,
            "componentType" : 5126,
            "count" : 109,
            "type" : "VEC2"
        },
        {
            "bufferView" : 2,
            "componentType" : 5126,
            "count" : 109,
            "type" : "VEC3"
        },
        {
            "bufferView" : 3,
            "componentType" : 5123,
            "count" : 288,
            "type" : "SCALAR"
        },
        {
            "bufferView" : 4,
            "componentType" : 5126,
            "count" : 24,
            "max" : [
                1,
                1,
                0.25
            ],
            "min" : [
                -1,
                -1,
                -0.25
            ],
            "type" : "VEC3"
        },
        {
            "bufferView" : 5,
            "componentType" : 5126,
            "count" : 24,
            "type" : "VEC2"
        },
        {
            "bufferView" : 6,
            "componentType" : 5126,
            "count" : 24,
            "type" : "VEC3"
        },
        {
            "bufferView" : 7,
            "componentType" : 5123,
            "count" : 36,
            "type" : "SCALAR"
        },
        {
            "bufferView" : 8,
            "componentType" : 5126,
            "count" : 42,
            "max" : [
                1,
                1.0278619527816772,
                0.2577589154243469
            ],
            "min" : [
                -1,
                -0.9721380472183228,
                -0.24224106967449188
            ],
            "type" : "VEC3"
        },
        {
            "bufferView" : 9,
            "componentType" : 5126,
            "count" : 42,
            "type" : "VEC2"
        },
        {
            "bufferView" : 10,
            "componentType" : 5126,
            "count" : 42,
            "type" : "VEC3"
        },
        {
            "bufferView" : 11,
            "componentType" : 5123,
            "count" : 72,
            "type" : "SCALAR"
        },
        {
            "bufferView" : 12,
            "componentType" : 5126,
            "count" : 54,
            "max" : [
                0.9739779829978943,
                1.026021957397461,
                0.26511192321777344
            ],
            "min" : [
                -1.026021957397461,
                -0.9739779829978943,
                -0.23488807678222656
            ],
            "type" : "VEC3"
        },
        {
            "bufferView" : 13,
            "componentType" : 5126,
            "count" : 54,
            "type" : "VEC2"
        },
        {
            "bufferView" : 14,
            "componentType" : 5126,
            "count" : 54,
            "type" : "VEC3"
        },
        {
            "bufferView" : 15,
            "componentType" : 5123,
            "count" : 90,
            "type" : "SCALAR"
        },
        {
            "bufferView" : 16,
            "componentType" : 5126,
            "count" : 3236,
            "max" : [
                2.8314733505249023,
                4.45155143737793,
                2.822563648223877
            ],
            "min" : [
                -3.6679036617279053,
                -5.190011024475098,
                -3.6637189388275146
            ],
            "type" : "VEC3"
        },
        {
            "bufferView" : 17,
            "componentType" : 5126,
            "count" : 3236,
            "type" : "VEC2"
        },
        {
            "bufferView" : 18,
            "componentType" : 5126,
            "count" : 3236,
            "type" : "VEC3"
        },
        {
            "bufferView" : 19,
            "componentType" : 5123,
            "count" : 4296,
            "type" : "SCALAR"
        },
        {
            "bufferView" : 20,
            "componentType" : 5126,
            "count" : 24,
            "max" : [
                2.6926662921905518,
                6.132033348083496,
                4.8319573402404785
            ],
            "min" : [
                -4.989027976989746,
                -6.295886993408203,
                -4.80067777633667
            ],
            "type" : "VEC3"
        },
        {
            "bufferView" : 21,
            "componentType" : 5126,
            "count" : 24,
            "type" : "VEC2"
        },
        {
            "bufferView" : 22,
            "componentType" : 5126,
            "count" : 24,
            "type" : "VEC3"
        },
        {
            "bufferView" : 23,
            "componentType" : 5123,
            "count" : 36,
            "type" : "SCALAR"
        }
    ],
    "bufferViews" : [
        {
            "buffer" : 0,
            "byteLength" : 1308,
            "byteOffset" : 0,
            "target" : 34962
        },
        {
            "buffer" : 0,
            "byteLength" : 872,
            "byteOffset" : 1308,
            "target" : 34962
        },
        {
            "buffer" : 0,
            "byteLength" : 1308,
            "byteOffset" : 2180,
            "target" : 34962
        },
        {
            "buffer" : 0,
            "byteLength" : 576,
            "byteOffset" : 3488,
            "target" : 34963
        },
        {
            "buffer" : 0,
            "byteLength" : 288,
            "byteOffset" : 4064,
            "target" : 34962
        },
        {
            "buffer" : 0,
            "byteLength" : 192,
            "byteOffset" : 4352,
            "target" : 34962
        },
        {
            "buffer" : 0,
            "byteLength" : 288,
            "byteOffset" : 4544,
            "target" : 34962
        },
        {
            "buffer" : 0,
            "byteLength" : 72,
            "byteOffset" : 4832,
            "target" : 34963
        },
        {
            "buffer" : 0,
            "byteLength" : 504,
            "byteOffset" : 4904,
            "target" : 34962
        },
        {
            "buffer" : 0,
            "byteLength" : 336,
            "byteOffset" : 5408,
            "target" : 34962
        },
        {
            "buffer" : 0,
            "byteLength" : 504,
            "byteOffset" : 5744,
            "target" : 34962
        },
        {
            "buffer" : 0,
            "byteLength" : 144,
            "byteOffset" : 6248,
            "target" : 34963
        },
        {
            "buffer" : 0,
            "byteLength" : 648,
            "byteOffset" : 6392,
            "target" : 34962
        },
        {
            "buffer" : 0,
            "byteLength" : 432,
            "byteOffset" : 7040,
            "target" : 34962
        },
        {
            "buffer" : 0,
            "byteLength" : 648,
            "byteOffset" : 7472,
            "target" : 34962
        },
        {
            "buffer" : 0,
            "byteLength" : 180,
            "byteOffset" : 8120,
            "target" : 34963
        },
        {
            "buffer" : 0,
            "byteLength" : 38832,
            "byteOffset" : 8300,
            "target" : 34962
        },
        {
            "buffer" : 0,
            "byteLength" : 25888,
            "byteOffset" : 47132,
            "target" : 34962
        },
        {
            "buffer" : 0,
            "byteLength" : 38832,
            "byteOffset" : 73020,
            "target" : 34962
        },
        {
            "buffer" : 0,
            "byteLength" : 8592,
            "byteOffset" : 111852,
            "target" : 34963
        },
        {
            "buffer" : 0,
            "byteLength" : 288,
            "byteOffset" : 120444,
            "target" : 34962
        },
        {
            "buffer" : 0,
            "byteLength" : 192,
            "byteOffset" : 120732,
            "target" : 34962
        },
        {
            "buffer" : 0,
            "byteLength" : 288,
            "byteOffset" : 120924,
            "target" : 34962
        },
        {
            "buffer" : 0,
            "byteLength" : 72,
            "byteOffset" : 121212,
            "target" : 34963
        }
    ],
    "buffers" : [
        {
            "byteLength" : 121284,
            "uri" : "data:application/octet-stream;base64,"
        }
    ]
}
